<?xml version="1.0" encoding="utf-8"?>
<!-- Generator: Adobe Illustrator 22.0.1, SVG Export Plug-In . SVG Version: 6.00 Build 0)  -->
<svg version="1.1" id="identidad" xmlns="http://www.w3.org/2000/svg" xmlns:xlink="http://www.w3.org/1999/xlink" x="0px" y="0px"
	 viewBox="0 0 139 79" style="enable-background:new 0 0 139 79;" xml:space="preserve">
<style type="text/css">
	.st0{fill:#270089;}
	.st1{fill:#00A7E1;}
	.st2{fill:#6F7271;}
</style>
<g>
	<g>
		<path class="st0" d="M25.4,41.5l-1,15.2h-3.7l0.4-6.2h-7.4l-0.4,6.2H9.6l1-15.2h3.7l-0.4,6.1h7.4l0.4-6.1H25.4z"/>
		<path class="st0" d="M31.3,46.5l-0.7,10.3h-3.2l0.7-10.3H31.3z M28.2,43.1c0-0.5,0.2-0.9,0.6-1.3c0.4-0.4,0.8-0.5,1.3-0.5
			c0.5,0,0.9,0.2,1.2,0.5c0.3,0.3,0.5,0.8,0.4,1.3c0,0.5-0.2,0.9-0.6,1.3c-0.4,0.4-0.8,0.5-1.3,0.5c-0.5,0-0.9-0.2-1.2-0.5
			C28.3,44,28.1,43.6,28.2,43.1z"/>
		<path class="st0" d="M37.1,46.5L37,47.3c0.9-0.7,1.9-1.1,2.9-1.1c1.3,0,2.4,0.5,3.2,1.5c0.8,1,1.2,2.3,1.1,3.7
			c-0.1,1.7-0.6,3-1.6,4c-1,1-2.2,1.5-3.7,1.5c-0.9,0-1.8-0.2-2.5-0.7l-0.4,5.7h-3.2l1-15.4H37.1z M36.9,49.4l-0.3,4.7
			c0.6,0.5,1.2,0.7,1.8,0.7c0.8,0,1.4-0.3,1.9-0.8c0.5-0.6,0.8-1.3,0.8-2.3c0.1-1-0.1-1.7-0.5-2.3c-0.4-0.5-0.9-0.8-1.7-0.8
			C38.3,48.5,37.6,48.8,36.9,49.4z"/>
		<path class="st0" d="M51.9,46.2c1.6,0,2.9,0.5,3.9,1.4c1,0.9,1.5,2.3,1.4,4c-0.1,1.7-0.8,3-1.9,3.9c-1.2,0.9-2.5,1.4-4.1,1.4
			c-1.7,0-3-0.5-4-1.5c-1-1-1.4-2.3-1.3-3.9c0.1-1.6,0.7-2.9,1.9-3.9C48.9,46.7,50.3,46.2,51.9,46.2z M51.3,55
			c1.5,0,2.3-1.2,2.5-3.5c0.1-2.2-0.5-3.4-2.1-3.4c-0.7,0-1.3,0.3-1.8,0.9c-0.4,0.6-0.7,1.4-0.8,2.5C49.1,53.9,49.8,55,51.3,55z"/>
		<path class="st0" d="M66.9,46.5l-0.1,2.2h-3.7l-0.3,4.2c0,0.5,0.1,0.9,0.3,1.2c0.3,0.3,0.6,0.4,1.1,0.4c0.7,0,1.4-0.2,2.2-0.6
			l-0.2,2.3c-1,0.4-2,0.6-3,0.6c-1.2,0-2.2-0.3-2.8-1c-0.6-0.7-0.9-1.6-0.8-2.9l0.3-4.4h-1.4l0-0.6l4.5-4.8h0.4l-0.2,3.2H66.9z"/>
		<path class="st0" d="M77.9,53.6l-0.1,2c-1.3,0.9-2.8,1.4-4.6,1.4c-1.8,0-3.2-0.5-4.1-1.5c-1-1-1.4-2.3-1.3-3.9
			c0.1-1.6,0.7-2.9,1.7-3.9c1.1-1,2.4-1.5,3.9-1.5c1.5,0,2.8,0.5,3.7,1.6c0.9,1.1,1.3,2.5,1.1,4.3h-7.2c0,0.9,0.3,1.7,0.8,2.2
			c0.6,0.5,1.3,0.8,2.3,0.8C75.2,55,76.5,54.5,77.9,53.6z M71.1,50.4h4.4c-0.1-1.5-0.8-2.2-2-2.2C72.1,48.2,71.4,48.9,71.1,50.4z"/>
		<path class="st0" d="M88.9,53.9l-0.1,2.3c-1.3,0.5-2.4,0.7-3.4,0.7c-1.8,0-3.2-0.5-4.1-1.5c-1-1-1.4-2.3-1.3-3.9
			c0.1-1.6,0.7-2.9,1.9-3.9c1.1-1,2.5-1.5,4.2-1.5c1.1,0,2.2,0.2,3.3,0.7L89,49.3c-0.8-0.5-1.7-0.7-2.5-0.7c-0.9,0-1.7,0.3-2.3,0.8
			c-0.6,0.5-0.9,1.3-1,2.2c-0.1,0.9,0.2,1.6,0.7,2.2c0.5,0.6,1.2,0.8,2.1,0.8C86.7,54.6,87.6,54.4,88.9,53.9z"/>
		<path class="st0" d="M101.3,54.2l-0.1,1.8c-1.1,0.6-2.1,0.9-3,0.9c-1,0-1.6-0.4-1.7-1.2c-1.2,0.8-2.3,1.2-3.4,1.2
			c-0.8,0-1.4-0.3-1.9-0.8c-0.5-0.5-0.8-1.1-0.7-1.8c0.1-0.9,0.4-1.6,1-2.2c0.6-0.5,2.4-1.3,5.3-2.1c0.1-1.1-0.4-1.7-1.6-1.7
			c-1.3,0-2.6,0.6-3.8,1.7l0.2-2.6c1.4-0.8,2.9-1.3,4.4-1.3c2.8,0,4.2,1,4.1,3.1l-0.3,4.7c0,0.5,0.1,0.7,0.5,0.7
			C100.3,54.8,100.7,54.6,101.3,54.2z M96.4,54.3l0.2-2.5c-1.1,0.4-1.8,0.7-2.2,1c-0.4,0.3-0.6,0.7-0.7,1.2c0,0.3,0.1,0.6,0.2,0.8
			c0.2,0.2,0.4,0.3,0.7,0.3C95.2,55,95.8,54.8,96.4,54.3z"/>
		<path class="st0" d="M106.3,46.5l-0.2,2.9h0c1.1-2.1,2.2-3.2,3.4-3.2c0.6,0,1.3,0.3,2,0.9l-1.1,2.9c-0.7-0.5-1.4-0.8-1.8-0.8
			c-0.7,0-1.4,0.5-1.9,1.4c-0.6,0.9-0.8,1.5-0.9,1.6l-0.3,4.5h-3.2l0.7-10.3H106.3z"/>
		<path class="st0" d="M116.1,46.5l-0.7,10.3h-3.2l0.7-10.3H116.1z M113,43.1c0-0.5,0.2-0.9,0.6-1.3c0.4-0.4,0.8-0.5,1.3-0.5
			c0.5,0,0.9,0.2,1.2,0.5c0.3,0.3,0.5,0.8,0.4,1.3c0,0.5-0.2,0.9-0.6,1.3c-0.4,0.4-0.8,0.5-1.3,0.5c-0.5,0-0.9-0.2-1.2-0.5
			C113.1,44,112.9,43.6,113,43.1z"/>
		<path class="st0" d="M128.5,54.2l-0.1,1.8c-1.1,0.6-2.1,0.9-3,0.9c-1,0-1.6-0.4-1.7-1.2c-1.2,0.8-2.3,1.2-3.4,1.2
			c-0.8,0-1.4-0.3-1.9-0.8c-0.5-0.5-0.7-1.1-0.7-1.8c0.1-0.9,0.4-1.6,1-2.2c0.6-0.5,2.4-1.3,5.3-2.1c0.1-1.1-0.4-1.7-1.6-1.7
			c-1.3,0-2.6,0.6-3.8,1.7l0.2-2.6c1.4-0.8,2.9-1.3,4.4-1.3c2.8,0,4.2,1,4.1,3.1l-0.3,4.7c0,0.5,0.1,0.7,0.5,0.7
			C127.6,54.8,128,54.6,128.5,54.2z M123.6,54.3l0.2-2.5c-1.1,0.4-1.8,0.7-2.2,1c-0.4,0.3-0.6,0.7-0.7,1.2c0,0.3,0.1,0.6,0.2,0.8
			c0.2,0.2,0.4,0.3,0.7,0.3C122.4,55,123,54.8,123.6,54.3z"/>
	</g>
	<g>
		<path class="st1" d="M119.4,36.5c-1-0.3-2-0.5-3-0.7c0.4-4.2,1.1-8.5,1.4-12.7c0-0.2,0.1-0.3,0-0.5c0-0.1,0-0.1,0-0.2
			c-0.1-0.4-0.4-0.7-0.7-0.9l-13.8-7.1c-0.4-0.2-1-0.2-1.4,0l-13.3,6.5c-0.4,0.2-0.7,0.6-0.8,1c0,0.1,0,0.2,0,0.2c0,0,0,0,0,0.1
			c0,0.1,0,0.2,0,0.2c0.4,3.5,1,7,1.5,10.5c-3.9,0.2-7.9,0.6-12.3,1.2l5.3-7.1h-9.8l-0.1,2.1h4.7l-5.7,7.6l0.8-0.3l3.4-0.5
			c5.1-0.9,9.7-1.3,14.1-1.3c0.2,1.1,0.3,2.3,0.4,3.4c0.1,1.2,3.1,0.8,2.8-0.6c-0.2-0.9-0.3-1.9-0.5-2.8c9.5,0.3,18.1,2.4,28.6,5.1
			C121.4,39.8,120.4,36.7,119.4,36.5z M92.1,32.8c-0.4-3.5-0.6-6.9-0.6-10.1l11.1-5.4l11.7,6.1c0.1,3.8,0,7.7-0.5,11.9
			C106.1,33.5,99.3,32.7,92.1,32.8z"/>
		<path class="st1" d="M18.7,28.8c-0.6-0.3-1.5-0.7-2.6-1.1c-1.1-0.4-1.7-0.7-2-0.9c-0.3-0.2-0.4-0.5-0.4-0.8c0-0.4,0.2-0.6,0.7-0.9
			c0.4-0.2,0.9-0.3,1.6-0.3c1.2,0,2.7,0.4,4.6,1.3l0.2-2.8c-1.7-0.7-3.4-1.1-5-1.1c-1.7,0-3.1,0.4-4.2,1.1c-1.1,0.8-1.7,1.7-1.8,3
			c-0.1,0.9,0.1,1.7,0.5,2.3c0.4,0.6,1,1.1,1.6,1.4c0.6,0.3,1.5,0.7,2.6,1.1c1.1,0.4,1.8,0.7,2,1c0.3,0.3,0.4,0.5,0.4,0.8
			c-0.1,0.9-0.8,1.3-2.3,1.3c-0.9,0-1.7-0.1-2.4-0.4c-0.7-0.3-1.6-0.8-2.6-1.4l-0.2,3.1c1.7,0.9,3.4,1.4,5.3,1.4
			c1.7,0,3.1-0.4,4.2-1.2c1.1-0.8,1.7-1.8,1.8-3.2c0.1-0.9-0.1-1.7-0.6-2.3C19.9,29.6,19.4,29.1,18.7,28.8z"/>
		<path class="st1" d="M32.5,28.1c-1-0.9-2.3-1.3-3.9-1.3c-1.6,0-3,0.5-4.2,1.4c-1.1,0.9-1.8,2.1-1.9,3.6c-0.1,1.5,0.3,2.7,1.3,3.6
			c1,0.9,2.3,1.4,4,1.4c1.5,0,2.9-0.4,4.1-1.3c1.2-0.9,1.8-2.1,1.9-3.7C34,30.3,33.5,29,32.5,28.1z M30.5,31.8
			c-0.1,2.2-1,3.3-2.5,3.3c-1.5,0-2.2-1.1-2.1-3.2c0.1-1,0.3-1.8,0.8-2.4c0.4-0.6,1-0.8,1.8-0.8C29.9,28.6,30.6,29.7,30.5,31.8z"/>
		<polygon class="st1" points="35.7,36.7 38.9,36.7 39.9,22.4 36.7,22.4 		"/>
		<polygon class="st1" points="41.7,36.7 44.8,36.7 45.5,27 42.3,27 		"/>
		<path class="st1" d="M44.2,22.2c-0.5,0-0.9,0.2-1.3,0.5c-0.4,0.3-0.6,0.7-0.6,1.2c0,0.5,0.1,0.8,0.4,1.2c0.3,0.3,0.7,0.5,1.2,0.5
			c0.5,0,0.9-0.2,1.3-0.5c0.4-0.3,0.6-0.7,0.6-1.2c0-0.5-0.1-0.9-0.4-1.2C45.1,22.4,44.7,22.2,44.2,22.2z"/>
		<path class="st1" d="M55.1,27.4c-0.8-0.4-1.7-0.6-2.6-0.6c-1.4,0-2.6,0.5-3.6,1.4c-1,0.9-1.5,2.1-1.6,3.6
			c-0.1,1.4,0.3,2.6,1.1,3.6c0.8,1,1.9,1.4,3.3,1.4c1.1,0,2-0.3,2.9-1l-0.1,0.8h3.2l1-14.3h-3.2L55.1,27.4z M54.7,34
			c-0.6,0.5-1.3,0.8-1.9,0.8c-0.7,0-1.3-0.3-1.7-0.8c-0.4-0.5-0.6-1.2-0.5-2.1c0.1-1,0.3-1.7,0.8-2.2c0.5-0.5,1.1-0.8,1.9-0.8
			c0.6,0,1.2,0.2,1.7,0.6L54.7,34z"/>
		<path class="st1" d="M65.7,26.8c-1.5,0-2.8,0.5-3.9,1.4c-1.1,0.9-1.6,2.2-1.7,3.6c-0.1,1.5,0.3,2.7,1.3,3.6c1,0.9,2.4,1.4,4.2,1.4
			c1.8,0,3.3-0.4,4.6-1.3l0.1-1.9c-1.4,0.9-2.6,1.4-3.8,1.4c-1,0-1.7-0.2-2.3-0.7c-0.6-0.5-0.8-1.1-0.8-2h7.2c0.2-1.7-0.2-3-1.1-4
			C68.5,27.3,67.3,26.8,65.7,26.8z M63.5,30.7c0.3-1.4,1-2.1,2.3-2.1c1.3,0,2,0.7,2,2.1H63.5z"/>
		<path class="st1" d="M123.4,20.8l-5-2.8l0.6-6.8c0.1-0.8-0.5-1.5-1.4-1.5c-0.8-0.1-1.5,0.5-1.6,1.3l-0.5,5.5l-12.4-6.9
			c-0.5-0.3-1-0.3-1.5,0L81.7,20.5c-0.7,0.4-1,1.3-0.6,1.9c0.4,0.7,1.3,0.9,2,0.5l19.2-10.5l19.5,10.8c0.2,0.1,0.5,0.2,0.8,0.2
			c0.5,0,1-0.3,1.3-0.7C124.4,22.1,124.1,21.2,123.4,20.8z"/>
	</g>
	<g>
		<path class="st2" d="M15.2,68.8l-0.7-1.5h-3.7l-0.7,1.5H9.6l2.8-6.3h0.5l2.8,6.3H15.2z M14.3,66.8L12.6,63L11,66.8H14.3z"/>
		<path class="st2" d="M21.2,65.2c-0.4-0.4-0.9-0.5-1.4-0.5c-0.7,0-1.3,0.2-1.3,0.8c0,0.6,0.8,0.7,1.3,0.8c0.8,0.1,1.9,0.3,1.8,1.3
			c0,1-1,1.2-1.8,1.2s-1.5-0.3-1.9-0.9l0.3-0.3c0.4,0.5,1,0.7,1.6,0.7c0.5,0,1.3-0.1,1.4-0.8c0-0.6-0.7-0.8-1.4-0.9
			c-0.9-0.1-1.7-0.3-1.7-1.2c0-0.9,0.9-1.2,1.8-1.2c0.6,0,1.2,0.2,1.6,0.6L21.2,65.2z"/>
		<path class="st2" d="M24.1,66.6c0-1.3,1-2.3,2.2-2.3c1.2,0,2.3,0.8,2.2,2.5h-4c0.1,1,0.9,1.6,1.8,1.6c0.6,0,1.3-0.2,1.6-0.7
			l0.3,0.3c-0.4,0.6-1.2,0.8-1.9,0.8C25.1,68.8,24.1,68,24.1,66.6z M28.1,66.4c0-1.1-0.7-1.7-1.8-1.7c-0.9,0-1.7,0.6-1.8,1.7H28.1z"
			/>
		<path class="st2" d="M34.4,65.2c-0.4-0.4-0.9-0.5-1.4-0.5c-0.7,0-1.3,0.2-1.3,0.8c0,0.6,0.8,0.7,1.3,0.8c0.8,0.1,1.9,0.3,1.8,1.3
			c0,1-1,1.2-1.8,1.2s-1.5-0.3-1.9-0.9l0.3-0.3c0.4,0.5,1,0.7,1.6,0.7c0.5,0,1.3-0.1,1.4-0.8c0-0.6-0.7-0.8-1.4-0.9
			c-0.9-0.1-1.7-0.3-1.7-1.2c0-0.9,0.9-1.2,1.8-1.2c0.6,0,1.2,0.2,1.6,0.6L34.4,65.2z"/>
		<path class="st2" d="M37.3,66.6c0-1.4,1-2.3,2.2-2.3c1.2,0,2.2,0.9,2.2,2.3c0,1.4-1,2.3-2.2,2.3C38.3,68.8,37.3,68,37.3,66.6z
			 M41.4,66.6c0-1.1-0.8-1.9-1.8-1.9c-1,0-1.8,0.7-1.8,1.9c0,1.1,0.8,1.8,1.8,1.8C40.6,68.4,41.4,67.7,41.4,66.6z"/>
		<path class="st2" d="M45,64.4l0,0.8c0.3-0.6,0.9-0.8,1.5-0.8c0.3,0,0.7,0.1,0.9,0.3l-0.2,0.4c-0.2-0.1-0.5-0.2-0.7-0.2
			c-0.8,0-1.5,0.7-1.5,1.5v2.6h-0.4v-4.4H45z"/>
		<path class="st2" d="M49.6,63.6L49.6,63.6l0.5-1.1h0.5v0l-0.6,1.1H49.6z M49.7,64.3v4.4h0.4v-4.4H49.7z"/>
		<path class="st2" d="M57.3,64.4c0,1.5,0,2.9,0,4.4h-0.4v-0.9c-0.4,0.7-1.1,1-1.8,1c-1.2,0-2.2-0.9-2.2-2.3c0-1.3,1-2.3,2.2-2.3
			c0.7,0,1.4,0.3,1.8,1v-1H57.3z M53.3,66.6c0,1.1,0.8,1.8,1.8,1.8c2.5,0,2.5-3.7,0-3.7C54.1,64.7,53.3,65.5,53.3,66.6z"/>
		<path class="st2" d="M68.9,68.8v-2.8h-4v2.8h-0.5v-6.3H65v3h4v-3h0.5v6.3H68.9z"/>
		<path class="st2" d="M73,62.9c0,0.5-0.7,0.5-0.7,0C72.3,62.5,73,62.5,73,62.9z M72.4,64.3v4.4h0.4v-4.4H72.4z"/>
		<path class="st2" d="M75.9,70.6v-6.3h0.4v1c0.3-0.7,1.1-1.1,1.9-1.1c1.2,0,2.1,0.8,2.1,2.3c0,1.5-1,2.3-2.2,2.3
			c-0.8,0-1.4-0.4-1.8-1.1v2.9H75.9z M79.9,66.6c0-1.2-0.8-1.8-1.8-1.8c-1,0-1.8,0.8-1.8,1.9c0,1.1,0.8,1.9,1.8,1.9
			C79.1,68.4,79.9,67.8,79.9,66.6z"/>
		<path class="st2" d="M82.9,66.6c0-1.4,1-2.3,2.2-2.3c1.2,0,2.2,0.9,2.2,2.3c0,1.4-1,2.3-2.2,2.3C83.9,68.8,82.9,68,82.9,66.6z
			 M87,66.6c0-1.1-0.8-1.9-1.8-1.9c-1,0-1.8,0.7-1.8,1.9c0,1.1,0.8,1.8,1.8,1.8C86.2,68.4,87,67.7,87,66.6z"/>
		<path class="st2" d="M91.1,63v1.3h1.5v0.4h-1.5v2.7c0,0.6,0.1,1,0.8,1c0.2,0,0.5-0.1,0.7-0.2l0.2,0.4c-0.3,0.1-0.6,0.2-0.8,0.2
			c-0.9,0-1.2-0.6-1.2-1.4v-2.7h-0.9v-0.4h0.9v-1.3L91.1,63z"/>
		<path class="st2" d="M95,66.6c0-1.3,1-2.3,2.2-2.3c1.2,0,2.3,0.8,2.2,2.5h-4c0.1,1,0.9,1.6,1.8,1.6c0.6,0,1.3-0.2,1.6-0.7l0.3,0.3
			c-0.4,0.6-1.2,0.8-1.9,0.8C96,68.8,95,68,95,66.6z M99.1,66.4c0-1.1-0.7-1.7-1.8-1.7c-0.9,0-1.7,0.6-1.8,1.7H99.1z"/>
		<path class="st2" d="M105.9,68.2c-0.4,0.4-1,0.7-1.6,0.7c-1.2,0-2.3-0.9-2.3-2.3c0-1.4,1-2.3,2.3-2.3c0.6,0,1.2,0.2,1.6,0.7
			l-0.3,0.3c-0.4-0.4-0.8-0.5-1.3-0.5c-1,0-1.8,0.7-1.8,1.8c0,1.2,0.8,1.8,1.8,1.8c0.5,0,1-0.2,1.3-0.5L105.9,68.2z"/>
		<path class="st2" d="M112.8,64.4c0,1.5,0,2.9,0,4.4h-0.4v-0.9c-0.4,0.7-1.1,1-1.8,1c-1.2,0-2.2-0.9-2.2-2.3c0-1.3,1-2.3,2.2-2.3
			c0.7,0,1.4,0.3,1.8,1v-1H112.8z M108.8,66.6c0,1.1,0.8,1.8,1.8,1.8c2.5,0,2.5-3.7,0-3.7C109.6,64.7,108.8,65.5,108.8,66.6z"/>
		<path class="st2" d="M116.1,64.4l0,0.8c0.3-0.6,0.9-0.8,1.5-0.8c0.3,0,0.7,0.1,0.9,0.3l-0.2,0.4c-0.2-0.1-0.5-0.2-0.8-0.2
			c-0.8,0-1.5,0.7-1.5,1.5v2.6h-0.4v-4.4H116.1z"/>
		<path class="st2" d="M121.5,62.9c0,0.5-0.7,0.5-0.7,0C120.8,62.5,121.5,62.5,121.5,62.9z M120.9,64.3v4.4h0.4v-4.4H120.9z"/>
		<path class="st2" d="M128.6,64.4c0,1.5,0,2.9,0,4.4h-0.4v-0.9c-0.4,0.7-1.1,1-1.8,1c-1.2,0-2.2-0.9-2.2-2.3c0-1.3,1-2.3,2.2-2.3
			c0.7,0,1.4,0.3,1.8,1v-1H128.6z M124.5,66.6c0,1.1,0.8,1.8,1.8,1.8c2.5,0,2.5-3.7,0-3.7C125.3,64.7,124.5,65.5,124.5,66.6z"/>
	</g>
</g>
</svg>
